<?xml version="1.0" ?>
<!-- Uploaded to: SVG Repo, www.svgrepo.com, Generator: SVG Repo Mixer Tools -->
<svg width="800px" height="800px" viewBox="0 0 64 64" version="1.1" xml:space="preserve" xmlns="http://www.w3.org/2000/svg" xmlns:xlink="http://www.w3.org/1999/xlink">
<style type="text/css">
	.st0{fill:#FFEEA9;}
	.st1{fill:#D32436;}
	.st2{fill:#8DD1D3;}
	.st3{fill:#330D00;}
	.st4{fill:none;stroke:#330D00;stroke-linecap:round;stroke-linejoin:round;stroke-miterlimit:10;}
</style>
<g id="_x34_0-Id_Card"/>
<g id="_x33_9-Formula"/>
<g id="_x33_8-Elbow"/>
<g id="_x33_7-Diploma"/>
<g id="_x33_6-Laptop"/>
<g id="_x33_5-Brush"/>
<g id="_x33_4-Baseball"/>
<g id="_x33_3-Student"/>
<g id="_x33_2-Highlighter"/>
<g id="_x33_1-Ruler"/>
<g id="_x33_0-Caliper"/>
<g id="_x32_9-Ruler_Elbow">
<g>
<g>
<path class="st2" d="M1.1,62.9h61.8V1.1L1.1,62.9z M54.1,54.1H22.5l31.5-31.5V54.1z"/>
</g>
<g>
<g>
<path class="st3" d="M63.3,0.1c-0.4-0.2-0.9-0.1-1.2,0.2L0.3,62.1c-0.3,0.3-0.4,0.8-0.2,1.2s0.6,0.7,1,0.7h61.8      c0.6,0,1.1-0.5,1.1-1.1V1.1C64,0.7,63.7,0.3,63.3,0.1z M55.2,61.8v-3.3c0-0.6-0.5-1.1-1.1-1.1c-0.6,0-1.1,0.5-1.1,1.1v3.3h-4.4      v-3.3c0-0.6-0.5-1.1-1.1-1.1c-0.6,0-1.1,0.5-1.1,1.1v3.3h-4.4v-3.3c0-0.6-0.5-1.1-1.1-1.1c-0.6,0-1.1,0.5-1.1,1.1v3.3h-4.4v-3.3      c0-0.6-0.5-1.1-1.1-1.1s-1.1,0.5-1.1,1.1v3.3h-4.4v-3.3c0-0.6-0.5-1.1-1.1-1.1s-1.1,0.5-1.1,1.1v3.3h-4.4v-3.3      c0-0.6-0.5-1.1-1.1-1.1c-0.6,0-1.1,0.5-1.1,1.1v3.3h-4.4v-3.3c0-0.6-0.5-1.1-1.1-1.1c-0.6,0-1.1,0.5-1.1,1.1v3.3H3.8l58-58v9.5      h-3.3c-0.6,0-1.1,0.5-1.1,1.1s0.5,1.1,1.1,1.1h3.3v4.4h-3.3c-0.6,0-1.1,0.5-1.1,1.1c0,0.6,0.5,1.1,1.1,1.1h3.3v4.4h-3.3      c-0.6,0-1.1,0.5-1.1,1.1s0.5,1.1,1.1,1.1h3.3v4.4h-3.3c-0.6,0-1.1,0.5-1.1,1.1c0,0.6,0.5,1.1,1.1,1.1h3.3v4.4h-3.3      c-0.6,0-1.1,0.5-1.1,1.1c0,0.6,0.5,1.1,1.1,1.1h3.3v4.4h-3.3c-0.6,0-1.1,0.5-1.1,1.1c0,0.6,0.5,1.1,1.1,1.1h3.3V53h-3.3      c-0.6,0-1.1,0.5-1.1,1.1c0,0.6,0.5,1.1,1.1,1.1h3.3v6.6H55.2z"/>
</g>
<g>
<path class="st3" d="M54.5,21.5c-0.4-0.2-0.9-0.1-1.2,0.2L21.8,53.3c-0.3,0.3-0.4,0.8-0.2,1.2s0.6,0.7,1,0.7h31.5      c0.6,0,1.1-0.5,1.1-1.1V22.5C55.2,22.1,54.9,21.7,54.5,21.5z M53,53H25.2L53,25.2V53z"/>
</g>
</g>
</g>
</g>
<g id="_x32_8-Abacus"/>
<g id="_x32_7-Id_Card"/>
<g id="_x32_6-Eraser"/>
<g id="_x32_5-Pencil"/>
<g id="_x32_4-Ink"/>
<g id="_x32_3-Graduation_Cap"/>
<g id="_x32_2-_Sling_Bag"/>
<g id="_x32_1-Rugby_Ball"/>
<g id="_x32_0-Clock"/>
<g id="_x31_9-Certificate"/>
<g id="_x31_8-Idea"/>
<g id="_x31_7-Bookshelf"/>
<g id="_x31_6-Formula"/>
<g id="_x31_5-Bell"/>
<g id="_x31_4-Magnifying_Glass"/>
<g id="_x31_3-Calculator"/>
<g id="_x31_2-Eyeglasses"/>
<g id="_x31_1-Bus"/>
<g id="_x31_0-Trophy"/>
<g id="_x39_-Globe"/>
<g id="_x38_-Basket_Ball"/>
<g id="_x37_-Pen"/>
<g id="_x36_-Board"/>
<g id="_x35_-Bag"/>
<g id="_x34_-Exam"/>
<g id="_x33_-Book"/>
<g id="_x32_-Ruler"/>
<g id="_x31_-Building"/>
</svg>