<?xml version="1.0" ?>
<!-- Uploaded to: SVG Repo, www.svgrepo.com, Generator: SVG Repo Mixer Tools -->
<svg width="800px" height="800px" viewBox="0 0 64 64" version="1.1" xml:space="preserve" xmlns="http://www.w3.org/2000/svg" xmlns:xlink="http://www.w3.org/1999/xlink">
<style type="text/css">
	.st0{fill:#FFEEA9;}
	.st1{fill:#D32436;}
	.st2{fill:#8DD1D3;}
	.st3{fill:#330D00;}
	.st4{fill:none;stroke:#330D00;stroke-linecap:round;stroke-linejoin:round;stroke-miterlimit:10;}
</style>
<g id="_x34_0-Id_Card"/>
<g id="_x33_9-Formula"/>
<g id="_x33_8-Elbow"/>
<g id="_x33_7-Diploma"/>
<g id="_x33_6-Laptop"/>
<g id="_x33_5-Brush"/>
<g id="_x33_4-Baseball"/>
<g id="_x33_3-Student"/>
<g id="_x33_2-Highlighter"/>
<g id="_x33_1-Ruler"/>
<g id="_x33_0-Caliper"/>
<g id="_x32_9-Ruler_Elbow"/>
<g id="_x32_8-Abacus"/>
<g id="_x32_7-Id_Card"/>
<g id="_x32_6-Eraser"/>
<g id="_x32_5-Pencil"/>
<g id="_x32_4-Ink"/>
<g id="_x32_3-Graduation_Cap"/>
<g id="_x32_2-_Sling_Bag"/>
<g id="_x32_1-Rugby_Ball"/>
<g id="_x32_0-Clock"/>
<g id="_x31_9-Certificate"/>
<g id="_x31_8-Idea"/>
<g id="_x31_7-Bookshelf"/>
<g id="_x31_6-Formula"/>
<g id="_x31_5-Bell"/>
<g id="_x31_4-Magnifying_Glass">
<g>
<g>
<path class="st2" d="M33.5,6.7c-7.4-7.4-19.4-7.4-26.8,0c-7.4,7.4-7.4,19.4,0,26.8c7.4,7.4,19.4,7.4,26.8,0     C40.9,26.1,40.9,14.1,33.5,6.7z M29.3,29.3c-5.1,5.1-13.3,5.1-18.4,0s-5.1-13.3,0-18.4s13.3-5.1,18.4,0S34.3,24.2,29.3,29.3z"/>
</g>
<g>
<rect class="st0" height="8" transform="matrix(0.7071 0.7071 -0.7071 0.7071 49.552 -20.5251)" width="29.8" x="34.7" y="45.6"/>
</g>
<g>
<g>
<path class="st3" d="M30,10.1c-5.5-5.5-14.4-5.5-19.9,0c-5.5,5.5-5.5,14.4,0,19.9c2.7,2.7,6.4,4.1,10,4.1c3.6,0,7.2-1.4,10-4.1      C35.5,24.6,35.5,15.6,30,10.1z M28.5,28.5c-4.6,4.6-12.2,4.6-16.8,0C7,23.9,7,16.3,11.7,11.7C14,9.4,17,8.2,20.1,8.2      c3,0,6.1,1.2,8.4,3.5C33.1,16.3,33.1,23.9,28.5,28.5z"/>
</g>
<g>
<path class="st3" d="M63.7,56.5l-21-21c-0.4-0.4-1.1-0.4-1.6,0l-2.1,2l-4-4c3.3-3.7,5.1-8.4,5.1-13.4c0-5.4-2.1-10.4-5.9-14.2      C30.5,2.1,25.5,0,20.1,0C14.7,0,9.7,2.1,5.9,5.9C2.1,9.7,0,14.7,0,20.1c0,5.4,2.1,10.4,5.9,14.2c3.8,3.8,8.8,5.9,14.2,5.9      c5,0,9.7-1.8,13.4-5.1l4,4l-2.1,2.1c-0.2,0.2-0.3,0.5-0.3,0.8c0,0.3,0.1,0.6,0.3,0.8l21,21c0.2,0.2,0.5,0.3,0.8,0.3      c0.3,0,0.6-0.1,0.8-0.3l5.7-5.7C64.1,57.6,64.1,56.9,63.7,56.5z M7.4,32.7c-3.4-3.4-5.2-7.9-5.2-12.6s1.9-9.3,5.2-12.6      c3.4-3.4,7.9-5.2,12.6-5.2c4.8,0,9.3,1.9,12.6,5.2c0,0,0,0,0,0c3.4,3.4,5.2,7.9,5.2,12.6s-1.9,9.3-5.2,12.6      c-3.4,3.4-7.9,5.2-12.6,5.2C15.3,38,10.8,36.1,7.4,32.7z M57.2,61.3L37.8,41.9l4.1-4.1l19.5,19.5L57.2,61.3z"/>
</g>
</g>
</g>
</g>
<g id="_x31_3-Calculator"/>
<g id="_x31_2-Eyeglasses"/>
<g id="_x31_1-Bus"/>
<g id="_x31_0-Trophy"/>
<g id="_x39_-Globe"/>
<g id="_x38_-Basket_Ball"/>
<g id="_x37_-Pen"/>
<g id="_x36_-Board"/>
<g id="_x35_-Bag"/>
<g id="_x34_-Exam"/>
<g id="_x33_-Book"/>
<g id="_x32_-Ruler"/>
<g id="_x31_-Building"/>
</svg>